<svg width="100" height="100" viewBox="0 0 100 100" fill="none" xmlns="http://www.w3.org/2000/svg">
<g clip-path="url(#clip0_2033_1394)">
<path d="M182.883 -78.3784H-87.3873V101.802H182.883V-78.3784Z" fill="#3B404B"/>
<path fill-rule="evenodd" clip-rule="evenodd" d="M20.1076 25.2243C15.7293 28.0351 13.6031 30.936 13.6031 35.7828C13.8914 35.6927 14.1437 35.6927 14.3959 35.6927C16.6842 35.6927 18.9004 37.2423 18.9004 40.0351C18.9004 42.936 17.0446 44.7378 14.3959 44.7378C10.9725 44.7378 9.00854 41.999 9.00854 37.0801C9.00854 30.2333 12.1617 25.3143 18.0536 21.9089L20.1076 25.2243ZM32.7203 25.2243C28.3419 28.0351 26.2158 30.936 26.2158 35.7828C26.504 35.6927 26.7563 35.6927 27.0085 35.6927C29.2968 35.6927 31.513 37.2423 31.513 40.0351C31.513 42.936 29.6572 44.7378 27.0085 44.7378C23.6031 44.7378 21.6392 41.999 21.6392 37.0801C21.6392 30.2333 24.7923 25.3143 30.6842 21.9089L32.7383 25.2243H32.7203Z" fill="#B3DAFF"/>
<path fill-rule="evenodd" clip-rule="evenodd" d="M79.2968 67.2609C83.6752 64.45 85.8013 61.5491 85.8013 56.7023C85.513 56.7924 85.2607 56.7924 85.0085 56.7924C82.7202 56.7924 80.504 55.2428 80.504 52.45C80.504 49.5491 82.3598 47.7473 85.0085 47.7473C88.4319 47.7473 90.3959 50.4861 90.3959 55.405C90.3959 62.2518 87.2427 67.1708 81.3508 70.5762L79.2968 67.2609ZM66.6842 67.2609C71.0625 64.45 73.1887 61.5491 73.1887 56.7023C72.9004 56.7924 72.6481 56.7924 72.3959 56.7924C70.1076 56.7924 67.8914 55.2428 67.8914 52.45C67.8914 49.5491 69.7472 47.7473 72.3959 47.7473C75.8013 47.7473 77.7652 50.4861 77.7652 55.405C77.7652 62.2518 74.6121 67.1708 68.7202 70.5762L66.6661 67.2609H66.6842Z" fill="#B3DAFF"/>
<path d="M-86.4862 66.6665L-80.0297 71.5614C-73.5733 76.4863 -60.6604 86.2761 -47.8075 88.0779C-34.9246 89.8797 -22.1319 83.6935 -9.24896 81.3212C3.60389 78.9788 16.5168 80.4803 29.3696 79.189C42.2525 77.8677 55.0453 73.7836 67.9282 75.5254C80.7811 77.2671 93.694 84.8947 106.547 85.135C119.43 85.3752 132.223 78.2881 145.105 77.8377C157.958 77.3872 170.871 83.5734 177.328 86.6965L183.784 89.7896V121.021H177.328C170.871 121.021 157.958 121.021 145.105 121.021C132.223 121.021 119.43 121.021 106.547 121.021C93.694 121.021 80.7811 121.021 67.9282 121.021C55.0453 121.021 42.2525 121.021 29.3696 121.021C16.5168 121.021 3.60389 121.021 -9.24896 121.021C-22.1319 121.021 -34.9246 121.021 -47.8075 121.021C-60.6604 121.021 -73.5733 121.021 -80.0297 121.021H-86.4862V66.6665Z" fill="#DADEE9"/>
<g filter="url(#filter0_d_2033_1394)">
<path d="M43.6421 62.4044C43.6429 62.8692 43.7803 63.3244 44.0382 63.7117L45.3012 65.6102C45.517 65.9348 45.8096 66.2009 46.1531 66.3851C46.4966 66.5692 46.8803 66.6655 47.27 66.6655H51.8305C52.2202 66.6655 52.6039 66.5692 52.9473 66.3851C53.2908 66.2009 53.5835 65.9348 53.7992 65.6102L55.0622 63.7117C55.32 63.3244 55.4578 62.8696 55.4583 62.4044L55.4613 59.5702H43.6384L43.6421 62.4044ZM36.5431 41.8337C36.5431 45.1128 37.7588 48.1043 39.7623 50.3901C40.9831 51.7832 42.8928 54.6934 43.6207 57.1484C43.6236 57.1677 43.6259 57.1869 43.6288 57.2061H55.4709C55.4738 57.1869 55.476 57.1684 55.479 57.1484C56.2069 54.6934 58.1166 51.7832 59.3374 50.3901C61.3409 48.1043 62.5566 45.1128 62.5566 41.8337C62.5566 34.6364 56.7117 28.8048 49.5092 28.827C41.9705 28.8499 36.5431 34.9586 36.5431 41.8337ZM49.5498 35.9216C46.29 35.9216 43.6377 38.5739 43.6377 41.8337C43.6377 42.487 43.1085 43.0162 42.4553 43.0162C41.802 43.0162 41.2728 42.487 41.2728 41.8337C41.2728 37.2695 44.9857 33.5567 49.5498 33.5567C50.2031 33.5567 50.7323 34.0858 50.7323 34.7391C50.7323 35.3924 50.2031 35.9216 49.5498 35.9216Z" fill="#FF9068"/>
<path d="M43.6421 62.4044C43.6429 62.8692 43.7803 63.3244 44.0382 63.7117L45.3012 65.6102C45.517 65.9348 45.8096 66.2009 46.1531 66.3851C46.4966 66.5692 46.8803 66.6655 47.27 66.6655H51.8305C52.2202 66.6655 52.6039 66.5692 52.9473 66.3851C53.2908 66.2009 53.5835 65.9348 53.7992 65.6102L55.0622 63.7117C55.32 63.3244 55.4578 62.8696 55.4583 62.4044L55.4613 59.5702H43.6384L43.6421 62.4044ZM36.5431 41.8337C36.5431 45.1128 37.7588 48.1043 39.7623 50.3901C40.9831 51.7832 42.8928 54.6934 43.6207 57.1484C43.6236 57.1677 43.6259 57.1869 43.6288 57.2061H55.4709C55.4738 57.1869 55.476 57.1684 55.479 57.1484C56.2069 54.6934 58.1166 51.7832 59.3374 50.3901C61.3409 48.1043 62.5566 45.1128 62.5566 41.8337C62.5566 34.6364 56.7117 28.8048 49.5092 28.827C41.9705 28.8499 36.5431 34.9586 36.5431 41.8337ZM49.5498 35.9216C46.29 35.9216 43.6377 38.5739 43.6377 41.8337C43.6377 42.487 43.1085 43.0162 42.4553 43.0162C41.802 43.0162 41.2728 42.487 41.2728 41.8337C41.2728 37.2695 44.9857 33.5567 49.5498 33.5567C50.2031 33.5567 50.7323 34.0858 50.7323 34.7391C50.7323 35.3924 50.2031 35.9216 49.5498 35.9216Z" stroke="#FF9068"/>
</g>
</g>
<defs>
<filter id="filter0_d_2033_1394" x="22.1287" y="14.4125" width="54.8424" height="66.6675" filterUnits="userSpaceOnUse" color-interpolation-filters="sRGB">
<feFlood flood-opacity="0" result="BackgroundImageFix"/>
<feColorMatrix in="SourceAlpha" type="matrix" values="0 0 0 0 0 0 0 0 0 0 0 0 0 0 0 0 0 0 127 0" result="hardAlpha"/>
<feOffset/>
<feGaussianBlur stdDeviation="7.20721"/>
<feComposite in2="hardAlpha" operator="out"/>
<feColorMatrix type="matrix" values="0 0 0 0 1 0 0 0 0 0.823529 0 0 0 0 0.709804 0 0 0 0.42 0"/>
<feBlend mode="normal" in2="BackgroundImageFix" result="effect1_dropShadow_2033_1394"/>
<feBlend mode="normal" in="SourceGraphic" in2="effect1_dropShadow_2033_1394" result="shape"/>
</filter>
<clipPath id="clip0_2033_1394">
<path d="M0 24C0 10.7452 10.7452 0 24 0H76C89.2548 0 100 10.7452 100 24V76C100 89.2548 89.2548 100 76 100H24C10.7452 100 0 89.2548 0 76V24Z" fill="white"/>
</clipPath>
</defs>
</svg>
