<svg width="100" height="100" viewBox="0 0 100 100" fill="none" xmlns="http://www.w3.org/2000/svg">
<g clip-path="url(#clip0_2033_740)">
<path d="M182.883 -78.3784H-87.3875V101.802H182.883V-78.3784Z" fill="#002233"/>
<path fill-rule="evenodd" clip-rule="evenodd" d="M20.1081 25.2255C15.7298 28.0363 13.6036 30.9372 13.6036 35.784C13.8919 35.6939 14.1442 35.6939 14.3964 35.6939C16.6847 35.6939 18.9009 37.2435 18.9009 40.0363C18.9009 42.9372 17.0451 44.739 14.3964 44.739C10.973 44.739 9.00903 42.0002 9.00903 37.0813C9.00903 30.2345 12.1622 25.3156 18.0541 21.9102L20.1081 25.2255ZM32.7207 25.2255C28.3424 28.0363 26.2162 30.9372 26.2162 35.784C26.5045 35.6939 26.7568 35.6939 27.009 35.6939C29.2973 35.6939 31.5135 37.2435 31.5135 40.0363C31.5135 42.9372 29.6577 44.739 27.009 44.739C23.6036 44.739 21.6397 42.0002 21.6397 37.0813C21.6397 30.2345 24.7928 25.3156 30.6847 21.9102L32.7388 25.2255H32.7207Z" fill="#B3DAFF"/>
<path fill-rule="evenodd" clip-rule="evenodd" d="M79.2971 67.2611C83.6755 64.4503 85.8016 61.5494 85.8016 56.7025C85.5134 56.7926 85.2611 56.7926 85.0089 56.7926C82.7206 56.7926 80.5043 55.2431 80.5043 52.4503C80.5043 49.5494 82.3602 47.7476 85.0089 47.7476C88.4323 47.7476 90.3962 50.4863 90.3962 55.4052C90.3962 62.2521 87.2431 67.171 81.3512 70.5764L79.2971 67.2611ZM66.6845 67.2611C71.0629 64.4503 73.189 61.5494 73.189 56.7025C72.9007 56.7926 72.6485 56.7926 72.3962 56.7926C70.108 56.7926 67.8917 55.2431 67.8917 52.4503C67.8917 49.5494 69.7476 47.7476 72.3962 47.7476C75.8016 47.7476 77.7656 50.4863 77.7656 55.4052C77.7656 62.2521 74.6125 67.171 68.7206 70.5764L66.6665 67.2611H66.6845Z" fill="#B3DAFF"/>
<path d="M-86.4865 66.6667L-80.03 71.5616C-73.5735 76.4866 -60.6606 86.2764 -47.8078 88.0782C-34.9249 89.88 -22.1321 83.6938 -9.24921 81.3214C3.60365 78.9791 16.5165 80.4806 29.3694 79.1893C42.2523 77.868 55.0451 73.7839 67.928 75.5256C80.7808 77.2673 93.6937 84.895 106.547 85.1352C119.429 85.3755 132.222 78.2884 145.105 77.8379C157.958 77.3875 170.871 83.5737 177.327 86.6968L183.784 89.7899V121.021H177.327C170.871 121.021 157.958 121.021 145.105 121.021C132.222 121.021 119.429 121.021 106.547 121.021C93.6937 121.021 80.7808 121.021 67.928 121.021C55.0451 121.021 42.2523 121.021 29.3694 121.021C16.5165 121.021 3.60365 121.021 -9.24921 121.021C-22.1321 121.021 -34.9249 121.021 -47.8078 121.021C-60.6606 121.021 -73.5735 121.021 -80.03 121.021H-86.4865V66.6667Z" fill="#0066FF"/>
<g filter="url(#filter0_d_2033_740)">
<path d="M43.6419 62.4063C43.6426 62.8712 43.7801 63.3264 44.038 63.7136L45.301 65.6122C45.5167 65.9367 45.8094 66.2029 46.1529 66.387C46.4963 66.5711 46.88 66.6675 47.2697 66.6675H51.8302C52.2199 66.6675 52.6036 66.5711 52.9471 66.387C53.2906 66.2029 53.5832 65.9367 53.799 65.6122L55.062 63.7136C55.3198 63.3263 55.4576 62.8716 55.4581 62.4063L55.461 59.5722H43.6382L43.6419 62.4063ZM36.5428 41.8357C36.5428 45.1147 37.7585 48.1063 39.762 50.3921C40.9829 51.7851 42.8925 54.6954 43.6204 57.1504C43.6234 57.1696 43.6256 57.1888 43.6286 57.208H55.4706C55.4736 57.1888 55.4758 57.1704 55.4788 57.1504C56.2067 54.6954 58.1163 51.7851 59.3372 50.3921C61.3407 48.1063 62.5564 45.1147 62.5564 41.8357C62.5564 34.6384 56.7114 28.8067 49.509 28.8289C41.9702 28.8518 36.5428 34.9606 36.5428 41.8357ZM49.5496 35.9235C46.2898 35.9235 43.6374 38.5759 43.6374 41.8357C43.6374 42.489 43.1083 43.0181 42.455 43.0181C41.8017 43.0181 41.2726 42.489 41.2726 41.8357C41.2726 37.2715 44.9854 33.5587 49.5496 33.5587C50.2029 33.5587 50.732 34.0878 50.732 34.7411C50.732 35.3944 50.2029 35.9235 49.5496 35.9235Z" fill="#FF9068"/>
<path d="M43.6419 62.4063C43.6426 62.8712 43.7801 63.3264 44.038 63.7136L45.301 65.6122C45.5167 65.9367 45.8094 66.2029 46.1529 66.387C46.4963 66.5711 46.88 66.6675 47.2697 66.6675H51.8302C52.2199 66.6675 52.6036 66.5711 52.9471 66.387C53.2906 66.2029 53.5832 65.9367 53.799 65.6122L55.062 63.7136C55.3198 63.3263 55.4576 62.8716 55.4581 62.4063L55.461 59.5722H43.6382L43.6419 62.4063ZM36.5428 41.8357C36.5428 45.1147 37.7585 48.1063 39.762 50.3921C40.9829 51.7851 42.8925 54.6954 43.6204 57.1504C43.6234 57.1696 43.6256 57.1888 43.6286 57.208H55.4706C55.4736 57.1888 55.4758 57.1704 55.4788 57.1504C56.2067 54.6954 58.1163 51.7851 59.3372 50.3921C61.3407 48.1063 62.5564 45.1147 62.5564 41.8357C62.5564 34.6384 56.7114 28.8067 49.509 28.8289C41.9702 28.8518 36.5428 34.9606 36.5428 41.8357ZM49.5496 35.9235C46.2898 35.9235 43.6374 38.5759 43.6374 41.8357C43.6374 42.489 43.1083 43.0181 42.455 43.0181C41.8017 43.0181 41.2726 42.489 41.2726 41.8357C41.2726 37.2715 44.9854 33.5587 49.5496 33.5587C50.2029 33.5587 50.732 34.0878 50.732 34.7411C50.732 35.3944 50.2029 35.9235 49.5496 35.9235Z" stroke="#FF9068"/>
</g>
</g>
<defs>
<filter id="filter0_d_2033_740" x="20.5428" y="12.8289" width="58.0135" height="69.8386" filterUnits="userSpaceOnUse" color-interpolation-filters="sRGB">
<feFlood flood-opacity="0" result="BackgroundImageFix"/>
<feColorMatrix in="SourceAlpha" type="matrix" values="0 0 0 0 0 0 0 0 0 0 0 0 0 0 0 0 0 0 127 0" result="hardAlpha"/>
<feOffset/>
<feGaussianBlur stdDeviation="8"/>
<feComposite in2="hardAlpha" operator="out"/>
<feColorMatrix type="matrix" values="0 0 0 0 1 0 0 0 0 0.823529 0 0 0 0 0.709804 0 0 0 0.42 0"/>
<feBlend mode="normal" in2="BackgroundImageFix" result="effect1_dropShadow_2033_740"/>
<feBlend mode="normal" in="SourceGraphic" in2="effect1_dropShadow_2033_740" result="shape"/>
</filter>
<clipPath id="clip0_2033_740">
<rect width="100" height="100" fill="white"/>
</clipPath>
</defs>
</svg>
